<mxfile host="app.diagrams.net" agent="Mozilla/5.0 (Windows NT 10.0; Win64; x64) AppleWebKit/537.36 (KHTML, like Gecko) Chrome/129.0.0.0 Safari/537.36" version="24.7.17">
  <diagram id="yd9aTgVnivIJkrsg6VLa" name="Página-1">
    <mxGraphModel dx="1214" dy="726" grid="1" gridSize="10" guides="1" tooltips="1" connect="1" arrows="1" fold="1" page="1" pageScale="1" pageWidth="827" pageHeight="1169" math="0" shadow="0">
      <root>
        <mxCell id="0" />
        <mxCell id="1" parent="0" />
        <mxCell id="ElUeNTri3LY7m_GMX26O-2" value="Capas de Frontend de la aplicación" style="text;html=1;align=center;verticalAlign=middle;whiteSpace=wrap;rounded=0;" parent="1" vertex="1">
          <mxGeometry x="267.5" y="64" width="195" height="30" as="geometry" />
        </mxCell>
        <mxCell id="ElUeNTri3LY7m_GMX26O-27" value="&lt;font style=&quot;font-size: 16px;&quot; color=&quot;#ffffff&quot;&gt;Modelo&lt;/font&gt;" style="shape=folder;fontStyle=1;tabWidth=450;tabHeight=34;tabPosition=left;html=1;boundedLbl=1;labelInHeader=1;container=1;collapsible=0;whiteSpace=wrap;fillColor=#3C97A7;" parent="1" vertex="1">
          <mxGeometry x="70" y="16" width="670" height="304" as="geometry" />
        </mxCell>
        <mxCell id="ElUeNTri3LY7m_GMX26O-28" value="" style="html=1;strokeColor=none;resizeWidth=1;resizeHeight=1;fillColor=none;part=1;connectable=0;allowArrows=0;deletable=0;whiteSpace=wrap;" parent="ElUeNTri3LY7m_GMX26O-27" vertex="1">
          <mxGeometry width="670" height="212.8" relative="1" as="geometry">
            <mxPoint y="30" as="offset" />
          </mxGeometry>
        </mxCell>
        <mxCell id="6camwcEFP1_lDwVI1pY3-35" value="Resultados" style="swimlane;fontStyle=1;align=center;verticalAlign=top;childLayout=stackLayout;horizontal=1;startSize=26;horizontalStack=0;resizeParent=1;resizeParentMax=0;resizeLast=0;collapsible=1;marginBottom=0;whiteSpace=wrap;html=1;" parent="ElUeNTri3LY7m_GMX26O-27" vertex="1">
          <mxGeometry x="183" y="77.4" width="177" height="107.60315372883647" as="geometry">
            <mxRectangle x="183" y="77.4" width="100" height="30" as="alternateBounds" />
          </mxGeometry>
        </mxCell>
        <mxCell id="6camwcEFP1_lDwVI1pY3-36" value="- resultados: Array[json]" style="text;strokeColor=none;fillColor=none;align=left;verticalAlign=top;spacingLeft=4;spacingRight=4;overflow=hidden;rotatable=0;points=[[0,0.5],[1,0.5]];portConstraint=eastwest;whiteSpace=wrap;html=1;" parent="6camwcEFP1_lDwVI1pY3-35" vertex="1">
          <mxGeometry y="26" width="177" height="24" as="geometry" />
        </mxCell>
        <mxCell id="6camwcEFP1_lDwVI1pY3-97" value="- clasificacion: string" style="text;strokeColor=none;fillColor=none;align=left;verticalAlign=top;spacingLeft=4;spacingRight=4;overflow=hidden;rotatable=0;points=[[0,0.5],[1,0.5]];portConstraint=eastwest;whiteSpace=wrap;html=1;" parent="6camwcEFP1_lDwVI1pY3-35" vertex="1">
          <mxGeometry y="50" width="177" height="24" as="geometry" />
        </mxCell>
        <mxCell id="6camwcEFP1_lDwVI1pY3-37" value="" style="line;strokeWidth=1;fillColor=none;align=left;verticalAlign=middle;spacingTop=-1;spacingLeft=3;spacingRight=3;rotatable=0;labelPosition=right;points=[];portConstraint=eastwest;strokeColor=inherit;" parent="6camwcEFP1_lDwVI1pY3-35" vertex="1">
          <mxGeometry y="74" width="177" height="4.389891696750903" as="geometry" />
        </mxCell>
        <mxCell id="6camwcEFP1_lDwVI1pY3-38" value="+ ToString(): String&amp;nbsp;" style="text;strokeColor=none;fillColor=none;align=left;verticalAlign=top;spacingLeft=4;spacingRight=4;overflow=hidden;rotatable=0;points=[[0,0.5],[1,0.5]];portConstraint=eastwest;whiteSpace=wrap;html=1;" parent="6camwcEFP1_lDwVI1pY3-35" vertex="1">
          <mxGeometry y="78.38989169675091" width="177" height="29.21326203208556" as="geometry" />
        </mxCell>
        <mxCell id="6camwcEFP1_lDwVI1pY3-111" value="Camera" style="swimlane;fontStyle=1;align=center;verticalAlign=top;childLayout=stackLayout;horizontal=1;startSize=26;horizontalStack=0;resizeParent=1;resizeParentMax=0;resizeLast=0;collapsible=1;marginBottom=0;whiteSpace=wrap;html=1;" parent="ElUeNTri3LY7m_GMX26O-27" vertex="1">
          <mxGeometry x="24.37" y="77.4" width="135.63" height="107.60315372883647" as="geometry">
            <mxRectangle x="24.37" y="77.4" width="80" height="30" as="alternateBounds" />
          </mxGeometry>
        </mxCell>
        <mxCell id="6camwcEFP1_lDwVI1pY3-112" value="- id: string" style="text;strokeColor=none;fillColor=none;align=left;verticalAlign=top;spacingLeft=4;spacingRight=4;overflow=hidden;rotatable=0;points=[[0,0.5],[1,0.5]];portConstraint=eastwest;whiteSpace=wrap;html=1;" parent="6camwcEFP1_lDwVI1pY3-111" vertex="1">
          <mxGeometry y="26" width="135.63" height="24" as="geometry" />
        </mxCell>
        <mxCell id="6camwcEFP1_lDwVI1pY3-113" value="- scan: image" style="text;strokeColor=none;fillColor=none;align=left;verticalAlign=top;spacingLeft=4;spacingRight=4;overflow=hidden;rotatable=0;points=[[0,0.5],[1,0.5]];portConstraint=eastwest;whiteSpace=wrap;html=1;" parent="6camwcEFP1_lDwVI1pY3-111" vertex="1">
          <mxGeometry y="50" width="135.63" height="24" as="geometry" />
        </mxCell>
        <mxCell id="6camwcEFP1_lDwVI1pY3-114" value="" style="line;strokeWidth=1;fillColor=none;align=left;verticalAlign=middle;spacingTop=-1;spacingLeft=3;spacingRight=3;rotatable=0;labelPosition=right;points=[];portConstraint=eastwest;strokeColor=inherit;" parent="6camwcEFP1_lDwVI1pY3-111" vertex="1">
          <mxGeometry y="74" width="135.63" height="4.389891696750903" as="geometry" />
        </mxCell>
        <mxCell id="6camwcEFP1_lDwVI1pY3-115" value="+ ToString(): String&amp;nbsp;" style="text;strokeColor=none;fillColor=none;align=left;verticalAlign=top;spacingLeft=4;spacingRight=4;overflow=hidden;rotatable=0;points=[[0,0.5],[1,0.5]];portConstraint=eastwest;whiteSpace=wrap;html=1;" parent="6camwcEFP1_lDwVI1pY3-111" vertex="1">
          <mxGeometry y="78.38989169675091" width="135.63" height="29.21326203208556" as="geometry" />
        </mxCell>
        <mxCell id="ElUeNTri3LY7m_GMX26O-50" value="&lt;font style=&quot;font-size: 16px;&quot;&gt;Vista&lt;/font&gt;" style="shape=folder;fontStyle=1;tabWidth=200;tabHeight=30;tabPosition=left;html=1;boundedLbl=1;labelInHeader=1;container=1;collapsible=0;whiteSpace=wrap;fillColor=#80db0a;" parent="1" vertex="1">
          <mxGeometry x="70" y="340" width="670" height="270" as="geometry" />
        </mxCell>
        <mxCell id="ElUeNTri3LY7m_GMX26O-51" value="" style="html=1;strokeColor=none;resizeWidth=1;resizeHeight=1;fillColor=none;part=1;connectable=0;allowArrows=0;deletable=0;whiteSpace=wrap;" parent="ElUeNTri3LY7m_GMX26O-50" vertex="1">
          <mxGeometry width="670" height="189" relative="1" as="geometry">
            <mxPoint y="30" as="offset" />
          </mxGeometry>
        </mxCell>
        <mxCell id="6camwcEFP1_lDwVI1pY3-61" value="CamaraVista" style="swimlane;fontStyle=1;align=center;verticalAlign=top;childLayout=stackLayout;horizontal=1;startSize=26;horizontalStack=0;resizeParent=1;resizeParentMax=0;resizeLast=0;collapsible=1;marginBottom=0;whiteSpace=wrap;html=1;" parent="ElUeNTri3LY7m_GMX26O-50" vertex="1">
          <mxGeometry x="9.999999999999996" y="65.86" width="190" height="69.99829268292683" as="geometry">
            <mxRectangle x="9.999999999999996" y="65.86" width="110" height="30" as="alternateBounds" />
          </mxGeometry>
        </mxCell>
        <mxCell id="6camwcEFP1_lDwVI1pY3-63" value="" style="line;strokeWidth=1;fillColor=none;align=left;verticalAlign=middle;spacingTop=-1;spacingLeft=3;spacingRight=3;rotatable=0;labelPosition=right;points=[];portConstraint=eastwest;strokeColor=inherit;" parent="6camwcEFP1_lDwVI1pY3-61" vertex="1">
          <mxGeometry y="26" width="190" height="5.26829268292683" as="geometry" />
        </mxCell>
        <mxCell id="6camwcEFP1_lDwVI1pY3-64" value="+ CameraMockup(modifier: Modifier): void" style="text;strokeColor=none;fillColor=none;align=left;verticalAlign=top;spacingLeft=4;spacingRight=4;overflow=hidden;rotatable=0;points=[[0,0.5],[1,0.5]];portConstraint=eastwest;whiteSpace=wrap;html=1;" parent="6camwcEFP1_lDwVI1pY3-61" vertex="1">
          <mxGeometry y="31.26829268292683" width="190" height="38.73" as="geometry" />
        </mxCell>
        <mxCell id="6camwcEFP1_lDwVI1pY3-26" value="ResultadosVista" style="swimlane;fontStyle=1;align=center;verticalAlign=top;childLayout=stackLayout;horizontal=1;startSize=26;horizontalStack=0;resizeParent=1;resizeParentMax=0;resizeLast=0;collapsible=1;marginBottom=0;whiteSpace=wrap;html=1;" parent="ElUeNTri3LY7m_GMX26O-50" vertex="1">
          <mxGeometry x="210" y="65.86" width="200" height="69.99829268292683" as="geometry">
            <mxRectangle x="210" y="65.86" width="130" height="30" as="alternateBounds" />
          </mxGeometry>
        </mxCell>
        <mxCell id="6camwcEFP1_lDwVI1pY3-28" value="" style="line;strokeWidth=1;fillColor=none;align=left;verticalAlign=middle;spacingTop=-1;spacingLeft=3;spacingRight=3;rotatable=0;labelPosition=right;points=[];portConstraint=eastwest;strokeColor=inherit;" parent="6camwcEFP1_lDwVI1pY3-26" vertex="1">
          <mxGeometry y="26" width="200" height="5.26829268292683" as="geometry" />
        </mxCell>
        <mxCell id="6camwcEFP1_lDwVI1pY3-29" value="+ ResultadosMockup(modifier: Modifier): void" style="text;strokeColor=none;fillColor=none;align=left;verticalAlign=top;spacingLeft=4;spacingRight=4;overflow=hidden;rotatable=0;points=[[0,0.5],[1,0.5]];portConstraint=eastwest;whiteSpace=wrap;html=1;" parent="6camwcEFP1_lDwVI1pY3-26" vertex="1">
          <mxGeometry y="31.26829268292683" width="200" height="38.73" as="geometry" />
        </mxCell>
        <mxCell id="y6kSdo7n65EJk_US9Ouf-10" style="edgeStyle=orthogonalEdgeStyle;rounded=0;orthogonalLoop=1;jettySize=auto;html=1;exitX=0.5;exitY=0;exitDx=0;exitDy=0;entryX=0.25;entryY=0;entryDx=0;entryDy=0;" edge="1" parent="ElUeNTri3LY7m_GMX26O-50" source="y6kSdo7n65EJk_US9Ouf-1" target="6camwcEFP1_lDwVI1pY3-61">
          <mxGeometry relative="1" as="geometry" />
        </mxCell>
        <mxCell id="y6kSdo7n65EJk_US9Ouf-26" style="edgeStyle=orthogonalEdgeStyle;rounded=0;orthogonalLoop=1;jettySize=auto;html=1;exitX=0.25;exitY=0;exitDx=0;exitDy=0;entryX=0.75;entryY=0;entryDx=0;entryDy=0;" edge="1" parent="ElUeNTri3LY7m_GMX26O-50" source="y6kSdo7n65EJk_US9Ouf-1" target="6camwcEFP1_lDwVI1pY3-26">
          <mxGeometry relative="1" as="geometry">
            <Array as="points">
              <mxPoint x="478" y="50" />
              <mxPoint x="360" y="50" />
            </Array>
          </mxGeometry>
        </mxCell>
        <mxCell id="y6kSdo7n65EJk_US9Ouf-1" value="UI.Theme" style="swimlane;fontStyle=1;align=center;verticalAlign=top;childLayout=stackLayout;horizontal=1;startSize=26;horizontalStack=0;resizeParent=1;resizeParentMax=0;resizeLast=0;collapsible=1;marginBottom=0;whiteSpace=wrap;html=1;" vertex="1" parent="ElUeNTri3LY7m_GMX26O-50">
          <mxGeometry x="420" y="86" width="230" height="164" as="geometry" />
        </mxCell>
        <mxCell id="y6kSdo7n65EJk_US9Ouf-2" value="+ Colors: Color[]" style="text;strokeColor=none;fillColor=none;align=left;verticalAlign=top;spacingLeft=4;spacingRight=4;overflow=hidden;rotatable=0;points=[[0,0.5],[1,0.5]];portConstraint=eastwest;whiteSpace=wrap;html=1;" vertex="1" parent="y6kSdo7n65EJk_US9Ouf-1">
          <mxGeometry y="26" width="230" height="26" as="geometry" />
        </mxCell>
        <mxCell id="y6kSdo7n65EJk_US9Ouf-17" value="- DarkColorScheme: darkColorScheme" style="text;strokeColor=none;fillColor=none;align=left;verticalAlign=top;spacingLeft=4;spacingRight=4;overflow=hidden;rotatable=0;points=[[0,0.5],[1,0.5]];portConstraint=eastwest;whiteSpace=wrap;html=1;" vertex="1" parent="y6kSdo7n65EJk_US9Ouf-1">
          <mxGeometry y="52" width="230" height="26" as="geometry" />
        </mxCell>
        <mxCell id="y6kSdo7n65EJk_US9Ouf-25" value="- LightColorScheme: lightColorScheme" style="text;strokeColor=none;fillColor=none;align=left;verticalAlign=top;spacingLeft=4;spacingRight=4;overflow=hidden;rotatable=0;points=[[0,0.5],[1,0.5]];portConstraint=eastwest;whiteSpace=wrap;html=1;" vertex="1" parent="y6kSdo7n65EJk_US9Ouf-1">
          <mxGeometry y="78" width="230" height="26" as="geometry" />
        </mxCell>
        <mxCell id="y6kSdo7n65EJk_US9Ouf-15" value="+ Typography: Typhograbhy" style="text;strokeColor=none;fillColor=none;align=left;verticalAlign=top;spacingLeft=4;spacingRight=4;overflow=hidden;rotatable=0;points=[[0,0.5],[1,0.5]];portConstraint=eastwest;whiteSpace=wrap;html=1;" vertex="1" parent="y6kSdo7n65EJk_US9Ouf-1">
          <mxGeometry y="104" width="230" height="26" as="geometry" />
        </mxCell>
        <mxCell id="y6kSdo7n65EJk_US9Ouf-3" value="" style="line;strokeWidth=1;fillColor=none;align=left;verticalAlign=middle;spacingTop=-1;spacingLeft=3;spacingRight=3;rotatable=0;labelPosition=right;points=[];portConstraint=eastwest;strokeColor=inherit;" vertex="1" parent="y6kSdo7n65EJk_US9Ouf-1">
          <mxGeometry y="130" width="230" height="8" as="geometry" />
        </mxCell>
        <mxCell id="y6kSdo7n65EJk_US9Ouf-4" value="+ FunTheme(type): type" style="text;strokeColor=none;fillColor=none;align=left;verticalAlign=top;spacingLeft=4;spacingRight=4;overflow=hidden;rotatable=0;points=[[0,0.5],[1,0.5]];portConstraint=eastwest;whiteSpace=wrap;html=1;" vertex="1" parent="y6kSdo7n65EJk_US9Ouf-1">
          <mxGeometry y="138" width="230" height="26" as="geometry" />
        </mxCell>
        <mxCell id="6camwcEFP1_lDwVI1pY3-3" value="&lt;font style=&quot;font-size: 16px;&quot;&gt;Controller&lt;/font&gt;" style="shape=folder;fontStyle=1;tabWidth=190;tabHeight=30;tabPosition=left;html=1;boundedLbl=1;labelInHeader=1;container=1;collapsible=0;whiteSpace=wrap;fillColor=#D84427;" parent="1" vertex="1">
          <mxGeometry x="70" y="650" width="550" height="210" as="geometry" />
        </mxCell>
        <mxCell id="6camwcEFP1_lDwVI1pY3-4" value="" style="html=1;strokeColor=none;resizeWidth=1;resizeHeight=1;fillColor=none;part=1;connectable=0;allowArrows=0;deletable=0;whiteSpace=wrap;" parent="6camwcEFP1_lDwVI1pY3-3" vertex="1">
          <mxGeometry width="550" height="147" relative="1" as="geometry">
            <mxPoint y="30" as="offset" />
          </mxGeometry>
        </mxCell>
        <mxCell id="6camwcEFP1_lDwVI1pY3-76" value="CamaraController" style="swimlane;fontStyle=1;align=center;verticalAlign=top;childLayout=stackLayout;horizontal=1;startSize=26;horizontalStack=0;resizeParent=1;resizeParentMax=0;resizeLast=0;collapsible=1;marginBottom=0;whiteSpace=wrap;html=1;" parent="6camwcEFP1_lDwVI1pY3-3" vertex="1">
          <mxGeometry x="45.546875" y="70" width="137.5" height="86" as="geometry" />
        </mxCell>
        <mxCell id="6camwcEFP1_lDwVI1pY3-77" value="+ field: type" style="text;strokeColor=none;fillColor=none;align=left;verticalAlign=top;spacingLeft=4;spacingRight=4;overflow=hidden;rotatable=0;points=[[0,0.5],[1,0.5]];portConstraint=eastwest;whiteSpace=wrap;html=1;" parent="6camwcEFP1_lDwVI1pY3-76" vertex="1">
          <mxGeometry y="26" width="137.5" height="26" as="geometry" />
        </mxCell>
        <mxCell id="6camwcEFP1_lDwVI1pY3-78" value="" style="line;strokeWidth=1;fillColor=none;align=left;verticalAlign=middle;spacingTop=-1;spacingLeft=3;spacingRight=3;rotatable=0;labelPosition=right;points=[];portConstraint=eastwest;strokeColor=inherit;" parent="6camwcEFP1_lDwVI1pY3-76" vertex="1">
          <mxGeometry y="52" width="137.5" height="8" as="geometry" />
        </mxCell>
        <mxCell id="6camwcEFP1_lDwVI1pY3-79" value="+ subirImagenS3()" style="text;strokeColor=none;fillColor=none;align=left;verticalAlign=top;spacingLeft=4;spacingRight=4;overflow=hidden;rotatable=0;points=[[0,0.5],[1,0.5]];portConstraint=eastwest;whiteSpace=wrap;html=1;" parent="6camwcEFP1_lDwVI1pY3-76" vertex="1">
          <mxGeometry y="60" width="137.5" height="26" as="geometry" />
        </mxCell>
        <mxCell id="6camwcEFP1_lDwVI1pY3-80" value="&lt;font style=&quot;font-size: 16px;&quot;&gt;Service_calls&lt;/font&gt;" style="shape=folder;fontStyle=1;tabWidth=190;tabHeight=30;tabPosition=left;html=1;boundedLbl=1;labelInHeader=1;container=1;collapsible=0;whiteSpace=wrap;fillColor=#8C5ABF;" parent="1" vertex="1">
          <mxGeometry x="80" y="900" width="540" height="210" as="geometry" />
        </mxCell>
        <mxCell id="6camwcEFP1_lDwVI1pY3-81" value="" style="html=1;strokeColor=none;resizeWidth=1;resizeHeight=1;fillColor=none;part=1;connectable=0;allowArrows=0;deletable=0;whiteSpace=wrap;" parent="6camwcEFP1_lDwVI1pY3-80" vertex="1">
          <mxGeometry width="540" height="147" relative="1" as="geometry">
            <mxPoint y="30" as="offset" />
          </mxGeometry>
        </mxCell>
        <mxCell id="6camwcEFP1_lDwVI1pY3-86" value="CommunicationToS3" style="swimlane;fontStyle=1;align=center;verticalAlign=top;childLayout=stackLayout;horizontal=1;startSize=26;horizontalStack=0;resizeParent=1;resizeParentMax=0;resizeLast=0;collapsible=1;marginBottom=0;whiteSpace=wrap;html=1;" parent="6camwcEFP1_lDwVI1pY3-80" vertex="1">
          <mxGeometry x="34.83870967741935" y="79" width="165.48387096774192" height="86" as="geometry" />
        </mxCell>
        <mxCell id="6camwcEFP1_lDwVI1pY3-87" value="+ field: type" style="text;strokeColor=none;fillColor=none;align=left;verticalAlign=top;spacingLeft=4;spacingRight=4;overflow=hidden;rotatable=0;points=[[0,0.5],[1,0.5]];portConstraint=eastwest;whiteSpace=wrap;html=1;" parent="6camwcEFP1_lDwVI1pY3-86" vertex="1">
          <mxGeometry y="26" width="165.48387096774192" height="26" as="geometry" />
        </mxCell>
        <mxCell id="6camwcEFP1_lDwVI1pY3-88" value="" style="line;strokeWidth=1;fillColor=none;align=left;verticalAlign=middle;spacingTop=-1;spacingLeft=3;spacingRight=3;rotatable=0;labelPosition=right;points=[];portConstraint=eastwest;strokeColor=inherit;" parent="6camwcEFP1_lDwVI1pY3-86" vertex="1">
          <mxGeometry y="52" width="165.48387096774192" height="8" as="geometry" />
        </mxCell>
        <mxCell id="6camwcEFP1_lDwVI1pY3-89" value="+ solicitarSubida(type): type" style="text;strokeColor=none;fillColor=none;align=left;verticalAlign=top;spacingLeft=4;spacingRight=4;overflow=hidden;rotatable=0;points=[[0,0.5],[1,0.5]];portConstraint=eastwest;whiteSpace=wrap;html=1;" parent="6camwcEFP1_lDwVI1pY3-86" vertex="1">
          <mxGeometry y="60" width="165.48387096774192" height="26" as="geometry" />
        </mxCell>
        <mxCell id="6camwcEFP1_lDwVI1pY3-100" value="CommunicationFromSNS" style="swimlane;fontStyle=1;align=center;verticalAlign=top;childLayout=stackLayout;horizontal=1;startSize=26;horizontalStack=0;resizeParent=1;resizeParentMax=0;resizeLast=0;collapsible=1;marginBottom=0;whiteSpace=wrap;html=1;" parent="6camwcEFP1_lDwVI1pY3-80" vertex="1">
          <mxGeometry x="243.87096774193546" y="79" width="165.48387096774192" height="86" as="geometry" />
        </mxCell>
        <mxCell id="6camwcEFP1_lDwVI1pY3-101" value="+ field: type" style="text;strokeColor=none;fillColor=none;align=left;verticalAlign=top;spacingLeft=4;spacingRight=4;overflow=hidden;rotatable=0;points=[[0,0.5],[1,0.5]];portConstraint=eastwest;whiteSpace=wrap;html=1;" parent="6camwcEFP1_lDwVI1pY3-100" vertex="1">
          <mxGeometry y="26" width="165.48387096774192" height="26" as="geometry" />
        </mxCell>
        <mxCell id="6camwcEFP1_lDwVI1pY3-102" value="" style="line;strokeWidth=1;fillColor=none;align=left;verticalAlign=middle;spacingTop=-1;spacingLeft=3;spacingRight=3;rotatable=0;labelPosition=right;points=[];portConstraint=eastwest;strokeColor=inherit;" parent="6camwcEFP1_lDwVI1pY3-100" vertex="1">
          <mxGeometry y="52" width="165.48387096774192" height="8" as="geometry" />
        </mxCell>
        <mxCell id="6camwcEFP1_lDwVI1pY3-103" value="+ avisarSubida(type): type" style="text;strokeColor=none;fillColor=none;align=left;verticalAlign=top;spacingLeft=4;spacingRight=4;overflow=hidden;rotatable=0;points=[[0,0.5],[1,0.5]];portConstraint=eastwest;whiteSpace=wrap;html=1;" parent="6camwcEFP1_lDwVI1pY3-100" vertex="1">
          <mxGeometry y="60" width="165.48387096774192" height="26" as="geometry" />
        </mxCell>
        <mxCell id="6camwcEFP1_lDwVI1pY3-90" style="edgeStyle=orthogonalEdgeStyle;rounded=0;orthogonalLoop=1;jettySize=auto;html=1;exitX=0;exitY=0.25;exitDx=0;exitDy=0;entryX=0.5;entryY=0;entryDx=0;entryDy=0;" parent="1" source="6camwcEFP1_lDwVI1pY3-76" target="6camwcEFP1_lDwVI1pY3-86" edge="1">
          <mxGeometry relative="1" as="geometry">
            <Array as="points">
              <mxPoint x="100" y="742" />
              <mxPoint x="100" y="960" />
              <mxPoint x="215" y="960" />
            </Array>
          </mxGeometry>
        </mxCell>
        <mxCell id="6camwcEFP1_lDwVI1pY3-104" style="edgeStyle=orthogonalEdgeStyle;rounded=0;orthogonalLoop=1;jettySize=auto;html=1;exitX=0.75;exitY=0;exitDx=0;exitDy=0;entryX=1;entryY=0.25;entryDx=0;entryDy=0;" parent="1" source="6camwcEFP1_lDwVI1pY3-86" target="6camwcEFP1_lDwVI1pY3-76" edge="1">
          <mxGeometry relative="1" as="geometry">
            <Array as="points">
              <mxPoint x="263" y="979" />
              <mxPoint x="263" y="960" />
              <mxPoint x="310" y="960" />
              <mxPoint x="310" y="742" />
            </Array>
          </mxGeometry>
        </mxCell>
        <mxCell id="6camwcEFP1_lDwVI1pY3-105" style="edgeStyle=orthogonalEdgeStyle;rounded=0;orthogonalLoop=1;jettySize=auto;html=1;exitX=0.75;exitY=0;exitDx=0;exitDy=0;entryX=0.25;entryY=0;entryDx=0;entryDy=0;" parent="1" source="6camwcEFP1_lDwVI1pY3-76" target="6camwcEFP1_lDwVI1pY3-100" edge="1">
          <mxGeometry relative="1" as="geometry">
            <Array as="points">
              <mxPoint x="254" y="710" />
              <mxPoint x="320" y="710" />
              <mxPoint x="320" y="950" />
              <mxPoint x="434" y="950" />
            </Array>
          </mxGeometry>
        </mxCell>
        <mxCell id="y6kSdo7n65EJk_US9Ouf-28" style="edgeStyle=orthogonalEdgeStyle;rounded=0;orthogonalLoop=1;jettySize=auto;html=1;exitX=1;exitY=0;exitDx=0;exitDy=0;entryX=0.5;entryY=1;entryDx=0;entryDy=0;dashed=1;dashPattern=8 8;endArrow=openThin;endFill=0;endSize=13;" edge="1" parent="1" source="6camwcEFP1_lDwVI1pY3-106" target="6camwcEFP1_lDwVI1pY3-35">
          <mxGeometry relative="1" as="geometry">
            <Array as="points">
              <mxPoint x="750" y="720" />
              <mxPoint x="750" y="240" />
              <mxPoint x="342" y="240" />
            </Array>
          </mxGeometry>
        </mxCell>
        <mxCell id="y6kSdo7n65EJk_US9Ouf-35" style="edgeStyle=orthogonalEdgeStyle;rounded=0;orthogonalLoop=1;jettySize=auto;html=1;exitX=0.75;exitY=0;exitDx=0;exitDy=0;entryX=0.75;entryY=1;entryDx=0;entryDy=0;endSize=13;endArrow=open;endFill=0;" edge="1" parent="1" source="6camwcEFP1_lDwVI1pY3-106" target="6camwcEFP1_lDwVI1pY3-26">
          <mxGeometry relative="1" as="geometry">
            <Array as="points">
              <mxPoint x="454" y="540" />
              <mxPoint x="430" y="540" />
            </Array>
          </mxGeometry>
        </mxCell>
        <mxCell id="6camwcEFP1_lDwVI1pY3-106" value="ResultadosController" style="swimlane;fontStyle=1;align=center;verticalAlign=top;childLayout=stackLayout;horizontal=1;startSize=26;horizontalStack=0;resizeParent=1;resizeParentMax=0;resizeLast=0;collapsible=1;marginBottom=0;whiteSpace=wrap;html=1;" parent="1" vertex="1">
          <mxGeometry x="334" y="720" width="160" height="86" as="geometry">
            <mxRectangle x="334" y="720" width="150" height="30" as="alternateBounds" />
          </mxGeometry>
        </mxCell>
        <mxCell id="6camwcEFP1_lDwVI1pY3-107" value="+ field: type" style="text;strokeColor=none;fillColor=none;align=left;verticalAlign=top;spacingLeft=4;spacingRight=4;overflow=hidden;rotatable=0;points=[[0,0.5],[1,0.5]];portConstraint=eastwest;whiteSpace=wrap;html=1;" parent="6camwcEFP1_lDwVI1pY3-106" vertex="1">
          <mxGeometry y="26" width="160" height="26" as="geometry" />
        </mxCell>
        <mxCell id="6camwcEFP1_lDwVI1pY3-108" value="" style="line;strokeWidth=1;fillColor=none;align=left;verticalAlign=middle;spacingTop=-1;spacingLeft=3;spacingRight=3;rotatable=0;labelPosition=right;points=[];portConstraint=eastwest;strokeColor=inherit;" parent="6camwcEFP1_lDwVI1pY3-106" vertex="1">
          <mxGeometry y="52" width="160" height="8" as="geometry" />
        </mxCell>
        <mxCell id="6camwcEFP1_lDwVI1pY3-109" value="+ subirImagenS3()" style="text;strokeColor=none;fillColor=none;align=left;verticalAlign=top;spacingLeft=4;spacingRight=4;overflow=hidden;rotatable=0;points=[[0,0.5],[1,0.5]];portConstraint=eastwest;whiteSpace=wrap;html=1;" parent="6camwcEFP1_lDwVI1pY3-106" vertex="1">
          <mxGeometry y="60" width="160" height="26" as="geometry" />
        </mxCell>
        <mxCell id="6camwcEFP1_lDwVI1pY3-110" style="edgeStyle=orthogonalEdgeStyle;rounded=0;orthogonalLoop=1;jettySize=auto;html=1;exitX=0.5;exitY=0;exitDx=0;exitDy=0;entryX=0.5;entryY=1;entryDx=0;entryDy=0;" parent="1" source="6camwcEFP1_lDwVI1pY3-100" target="6camwcEFP1_lDwVI1pY3-106" edge="1">
          <mxGeometry relative="1" as="geometry" />
        </mxCell>
        <mxCell id="y6kSdo7n65EJk_US9Ouf-27" style="edgeStyle=orthogonalEdgeStyle;rounded=0;orthogonalLoop=1;jettySize=auto;html=1;exitX=0;exitY=0;exitDx=0;exitDy=0;endArrow=openThin;endFill=0;endSize=13;dashed=1;dashPattern=8 8;entryX=0.5;entryY=1;entryDx=0;entryDy=0;" edge="1" parent="1" source="6camwcEFP1_lDwVI1pY3-76" target="6camwcEFP1_lDwVI1pY3-111">
          <mxGeometry relative="1" as="geometry">
            <mxPoint x="20" y="530" as="targetPoint" />
            <Array as="points">
              <mxPoint x="30" y="720" />
              <mxPoint x="30" y="240" />
              <mxPoint x="162" y="240" />
            </Array>
          </mxGeometry>
        </mxCell>
        <mxCell id="y6kSdo7n65EJk_US9Ouf-31" style="edgeStyle=orthogonalEdgeStyle;rounded=0;orthogonalLoop=1;jettySize=auto;html=1;exitX=0.5;exitY=1;exitDx=0;exitDy=0;entryX=0.25;entryY=0;entryDx=0;entryDy=0;endArrow=open;endFill=0;endSize=12;" edge="1" parent="1" source="6camwcEFP1_lDwVI1pY3-61" target="6camwcEFP1_lDwVI1pY3-76">
          <mxGeometry relative="1" as="geometry" />
        </mxCell>
        <mxCell id="y6kSdo7n65EJk_US9Ouf-33" style="edgeStyle=orthogonalEdgeStyle;rounded=0;orthogonalLoop=1;jettySize=auto;html=1;exitX=0.25;exitY=1;exitDx=0;exitDy=0;entryX=0.25;entryY=0;entryDx=0;entryDy=0;strokeWidth=1;endSize=13;endArrow=open;endFill=0;" edge="1" parent="1" source="6camwcEFP1_lDwVI1pY3-26" target="6camwcEFP1_lDwVI1pY3-106">
          <mxGeometry relative="1" as="geometry" />
        </mxCell>
        <mxCell id="y6kSdo7n65EJk_US9Ouf-34" style="edgeStyle=orthogonalEdgeStyle;rounded=0;orthogonalLoop=1;jettySize=auto;html=1;exitX=0.5;exitY=0;exitDx=0;exitDy=0;entryX=0.75;entryY=1;entryDx=0;entryDy=0;endSize=13;endArrow=open;endFill=0;" edge="1" parent="1" source="6camwcEFP1_lDwVI1pY3-76" target="6camwcEFP1_lDwVI1pY3-61">
          <mxGeometry relative="1" as="geometry" />
        </mxCell>
      </root>
    </mxGraphModel>
  </diagram>
</mxfile>
